<?xml version="1.0" standalone="no"?>
<!DOCTYPE svg PUBLIC "-//W3C//DTD SVG 20010904//EN"
 "http://www.w3.org/TR/2001/REC-SVG-20010904/DTD/svg10.dtd">
<svg version="1.0" xmlns="http://www.w3.org/2000/svg"
 width="248.000000pt" height="464.000000pt" viewBox="0 0 248.000000 464.000000"
 preserveAspectRatio="xMidYMid meet">

<g transform="translate(0.000000,464.000000) scale(0.100000,-0.100000)"
fill="#000000" stroke="none">
<path d="M155 4606 c-40 -17 -123 -101 -131 -132 -18 -71 13 -190 68 -259 11
-14 99 -85 197 -157 436 -325 690 -549 1516 -1338 171 -163 335 -319 365 -348
l55 -52 -55 -52 c-30 -29 -235 -224 -455 -434 -748 -712 -980 -916 -1392
-1225 -117 -88 -224 -174 -237 -192 -43 -57 -68 -125 -69 -192 -2 -57 1 -67
29 -101 105 -132 190 -137 373 -25 66 41 77 52 95 96 23 58 118 213 184 299
25 34 114 131 197 216 83 85 384 398 670 695 614 639 720 746 801 807 33 25
71 59 83 76 l21 30 -91 84 c-51 45 -234 232 -408 413 -173 182 -449 467 -612
635 -620 639 -655 678 -771 865 -31 50 -61 106 -67 126 -14 44 -36 65 -121
114 -113 65 -180 79 -245 51z"/>
</g>
</svg>
